<svg xmlns:dc="http://purl.org/dc/elements/1.1/" xmlns:cc="http://creativecommons.org/ns#" xmlns:rdf="http://www.w3.org/1999/02/22-rdf-syntax-ns#" xmlns:svg="http://www.w3.org/2000/svg" xmlns="http://www.w3.org/2000/svg" xmlns:sodipodi="http://sodipodi.sourceforge.net/DTD/sodipodi-0.dtd" xmlns:inkscape="http://www.inkscape.org/namespaces/inkscape" version="1.1" width="77" height="74" style=""><rect id="backgroundrect" width="100%" height="100%" x="0" y="0" fill="none" stroke="none"/><g class="currentLayer" style=""><title>Layer 1</title><g id="svg_1" class=""><path style="" d="m59.2115478515625,63.61115264892578 c-4.059659957885742,-0.3919300138950348 -8.0178804397583,-2.398789882659912 -10.641610145568848,-5.395420074462891 c-3.8349099159240723,-4.379940032958984 -5.067349910736084,-10.414560317993164 -3.245569944381714,-15.891790390014648 c0.8827700018882751,-2.6540699005126953 2.5862700939178467,-5.241769790649414 4.62686014175415,-7.0284199714660645 c4.379940032958984,-3.8349099159240723 10.414560317993164,-5.067349910736084 15.891790390014648,-3.245569944381714 c2.6540699005126953,0.8827700018882751 5.241769790649414,2.5862700939178467 7.0284199714660645,4.62686014175415 c3.8349099159240723,4.379940032958984 5.067349910736084,10.414560317993164 3.245569944381714,15.891790390014648 c-0.8827700018882751,2.6540699005126953 -2.5862700939178467,5.241769790649414 -4.62686014175415,7.0284199714660645 c-3.3814198970794678,2.9606399536132812 -7.89762020111084,4.437079906463623 -12.278599739074707,4.014130115509033 zm3.541140079498291,-9.899550437927246 v-4.233329772949219 h4.233329772949219 h4.233339786529541 v-2.0320000648498535 v-2.0320000648498535 h-4.233339786529541 h-4.233329772949219 v-4.233329772949219 v-4.233339786529541 h-2.0320000648498535 h-2.0320000648498535 v4.233339786529541 v4.233329772949219 h-4.233329772949219 h-4.233339786529541 v2.0320000648498535 v2.0320000648498535 h4.233339786529541 h4.233329772949219 v4.233329772949219 v4.233339786529541 h2.0320000648498535 h2.0320000648498535 zm-43.28582000732422,-23.98179054260254 l19.4097900390625,-19.409799575805664 l8.69596004486084,8.69596004486084 c4.782780170440674,4.782780170440674 8.675239562988281,8.716690063476562 8.649900436401367,8.742019653320312 c-0.025299999862909317,0.025299999862909317 -0.4480000138282776,0.1589300036430359 -0.93927001953125,0.29686999320983887 c-4.205359935760498,1.1808500289916992 -8.181779861450195,3.9184300899505615 -10.83113956451416,7.456739902496338 c-2.7532999515533447,3.6771299839019775 -4.13608980178833,7.839990139007568 -4.13608980178833,12.451640129089355 v1.176360011100769 h-20.129470825195312 h-20.129480361938477 z" fill="#000000" stroke-width="0.08466666" id="svg_2"/></g></g></svg>